# xmcd
#
# Track frame offsets:
#	150
#	7414
#	15124
#	21728
#	33922
#	45628
#	56116
#	69644
#	83901
#	94053
#	102549
#	110158
#	117209
#	124601
#	141898
#	152005
#	163074
#	175579
#	181117
#	195186
#	207677
#	221933
#	230295
#	239766
#	251570
#	261779
#	276752
#	286778
#	297438
#	310342
#
# Disc length: 4269 seconds
#
# Revision: 1
# Processed by: cddbd v1.5.1PL0 Copyright (c) Steve Scherf et al.
# Submitted via: audiograbber 1.82.02
#
DISCID=bf10ab1e
DTITLE=Hank Snow - The Hank Snow Collection CD 8
DYEAR=1900
DGENRE=
TTITLE0=I'm Coming Home
TTITLE1=Easter Parade
TTITLE2=Peter Cotton Tail
TTITLE3=My Good Gal's Gone
TTITLE4=Breeze
TTITLE5=This Cold War With You
TTITLE6=I Love You Nellie
TTITLE7=Beautiful Dreamer
TTITLE8=Twelth Street Rag
TTITLE9=Bye Bye Blues
TTITLE10=Hilo March
TTITLE11=Orange Blossom
TTITLE12=Beaumont Ride
TTITLE13=Just When I Need You
TTITLE14=Ninety Nine Years Blues
TTITLE15=My Blue Eyed Jane
TTITLE16=Yodelling Cowboy
TTITLE17=The Cannonball
TTITLE18=It's Been So Long Darling
TTITLE19=The Lover's Farwell
TTITLE20=You Nearly Loose Your Mind
TTITLE21=Kentucky Waltz
TTITLE22=Pony In His Stall
TTITLE23=Among His Souvenir's
TTITLE24=Little Old Home
TTITLE25=The Rainbow's End
TTITLE26=Tragic Romance
TTITLE27=I Will Never Say Goodbye
TTITLE28=I'll Go On Alone
TTITLE29=A Cowhands Last Ride
EXTD=
EXTT0=
EXTT1=
EXTT2=
EXTT3=
EXTT4=
EXTT5=
EXTT6=
EXTT7=
EXTT8=
EXTT9=
EXTT10=
EXTT11=
EXTT12=
EXTT13=
EXTT14=
EXTT15=
EXTT16=
EXTT17=
EXTT18=
EXTT19=
EXTT20=
EXTT21=
EXTT22=
EXTT23=
EXTT24=
EXTT25=
EXTT26=
EXTT27=
EXTT28=
EXTT29=
PLAYORDER=
